<?xml version="1.0" encoding="utf-8"?>
<!-- Generator: Adobe Illustrator 22.1.0, SVG Export Plug-In . SVG Version: 6.00 Build 0)  -->
<svg version="1.1" id="Capa_1" xmlns="http://www.w3.org/2000/svg" xmlns:xlink="http://www.w3.org/1999/xlink" x="0px" y="0px"
	 viewBox="0 0 372.3 372.3" style="enable-background:new 0 0 372.3 372.3;" xml:space="preserve">
<style type="text/css">
	.st0{fill:#339900;}
</style>
<path class="st0" d="M322.8,89.7c14.4,1.4,31.4,8,49.4,25.4c0,0-5-57.8-62.7-64.9c-5.3-0.7-10.2-0.5-14.7,0.2
	c-2.8-3.6-6.3-6.9-10.5-10.1c-46.9-34.3-90.1,4.4-90.1,4.4c25.1-0.3,42,6.5,53.4,15.3c-9.4-0.7-20.3-0.1-32.1,3.1
	c-22,6-36.5,18.7-46.2,33H180c0,0,80,0,80,0l9.7,17.6c0,0,0,0,0,0l1.9,3.4c3-1.1,6.2-1.3,9.4-0.7c-3.2-0.6-6.4-0.3-9.3,0.7
	l17.4,31.4c1.5-1.2,2.8-2.6,3.8-4.2c17.7,14,36.3,39.4,33.8,83.8c0,0,52.6-56.5,17.3-114.1C337.7,103.5,330.2,95.6,322.8,89.7z"/>
<polygon id="XMLID_13_" class="st0" points="160,276.1 70,276.1 50,276.1 50,296.1 310,296.1 310,276.1 290,276.1 200,276.1 "/>
<path class="st0" d="M180,186.1H70v90h90v-60h20h20v60h90v-90H180z M130,246.1h-30v-30h30V246.1z M260,246.1h-30v-30h30V246.1z"/>
<polygon id="XMLID_1_" class="st0" points="100,296.1 70,296.1 70,336.1 70,341 100,333.4 "/>
<polygon id="XMLID_2331_" class="st0" points="195,337.4 195,337.4 195,296.1 165,296.1 165,337.4 165,337.4 "/>
<polygon id="XMLID_2_" class="st0" points="290,296.1 260,296.1 260,326.1 260,326.1 290,339.5 "/>
<polygon class="st0" points="289.1,148.5 271.7,117.1 269.8,113.7 260,96.1 180,96.1 169.3,96.1 100,96.1 83.3,126.1 50,186.1 
	70,186.1 180,186.1 290,186.1 310,186.1 "/>
<path class="st0" d="M369.9,328c-17.6-11.9-40.2-11.9-57.8,0c-13.8,9.3-31.7,9.3-45.5,0c-17.6-11.9-40.2-11.9-57.8,0
	c-13.8,9.3-31.7,9.3-45.5,0c-17.6-11.9-40.2-11.9-57.8,0c-13.8,9.3-31.7,9.3-45.5,0c-17.6-11.9-40.2-11.9-57.8,0
	c-2.5,1.7-3.1,5.1-1.5,7.7c1.7,2.5,5.1,3.1,7.7,1.5c13.8-9.3,31.7-9.3,45.5,0c17.6,11.9,40.2,11.9,57.8,0c13.8-9.3,31.7-9.3,45.5,0
	c17.6,11.9,40.2,11.9,57.8,0c13.8-9.3,31.7-9.3,45.5,0c8.8,6,18.8,8.9,28.9,8.9s20.1-3,28.9-8.9c13.8-9.3,31.7-9.3,45.5,0
	c2.5,1.7,5.9,1,7.7-1.5C373,333.1,372.4,329.7,369.9,328z"/>
</svg>
