<?xml version="1.0" encoding="utf-8"?>
<!-- Generator: Adobe Illustrator 22.1.0, SVG Export Plug-In . SVG Version: 6.00 Build 0)  -->
<svg version="1.1" id="Layer_1" xmlns="http://www.w3.org/2000/svg" xmlns:xlink="http://www.w3.org/1999/xlink" x="0px" y="0px"
	 viewBox="0 0 512 512" style="enable-background:new 0 0 512 512;" xml:space="preserve">
<style type="text/css">
	.st0{fill:#339900;}
</style>
<g>
	<path class="st0" d="M508.7,457.3c-15.7-10.6-34.4-14.3-52.1-11.1c-24.1-29-81.3-51.3-152-58.3l61-153.1
		c12.5,7.5,22.9,17,30.8,27.7l0.2,0.4l0.1-0.1c18.6-3.4,39.2-1.6,59.2,6.3c20,8,36.2,20.9,47.3,36.1c0,0,22.1-154.2-103.8-204.4l0,0
		C273.6,50.9,183.7,178,183.7,178c18.5-3.5,39.2-1.7,59.2,6.3c19.9,7.9,36.1,20.7,47.2,36v0.2c13.2-2.4,27.5-2.2,41.8,1l-11.3,28.3
		l0,0l-54.1,135.9c-3.2-0.1-6.4-0.1-9.6-0.1c-2.6,0-5.2,0-7.8,0.1c-0.3,0-0.6,0-0.9,0c-2.4,0-4.8,0.1-7.1,0.2c-0.5,0-1,0-1.5,0
		c-2.2,0.1-4.4,0.2-6.6,0.3c-0.7,0-1.4,0.1-2.1,0.1c-2,0.1-4,0.2-6,0.4c-0.9,0.1-1.7,0.1-2.6,0.2c-1.6,0.1-3.2,0.2-4.8,0.4
		c-1.3,0.1-2.6,0.2-3.9,0.3c-1,0.1-2,0.2-3,0.3c-2,0.2-3.9,0.4-5.9,0.6c-0.5,0.1-1.1,0.1-1.6,0.2c-3.6,0.4-7.2,0.8-10.8,1.3h0.1
		c-62.9,8.6-113.1,29.6-135.2,56.3c-17.8-3.3-36.5,0.4-52.2,11c-3.4,2.3-4.3,7-2,10.5c2.3,3.4,7,4.3,10.5,2
		c18.9-12.8,43.4-12.8,62.3,0c24.1,16.3,55.1,16.3,79.2,0c18.9-12.8,43.4-12.8,62.3,0c24.1,16.3,55.1,16.3,79.2,0
		c18.9-12.8,43.4-12.8,62.3,0c12,8.2,25.8,12.2,39.6,12.2c13.8,0,27.6-4.1,39.6-12.2c18.9-12.8,43.4-12.8,62.3,0
		c3.4,2.3,8.1,1.4,10.5-2C513,464.3,512.1,459.7,508.7,457.3z"/>
	<circle class="st0" cx="85.7" cy="115.7" r="41"/>
	<path class="st0" d="M85.7,60.2c4.2,0,7.5-3.4,7.5-7.6V37.5c0-4.1-3.4-7.5-7.5-7.5s-7.5,3.3-7.5,7.5v15.2
		C78.2,56.8,81.5,60.2,85.7,60.2z"/>
	<path class="st0" d="M130.3,78.7c1.9,0,3.8-0.8,5.3-2.2l10.7-10.7c2.9-3,2.9-7.8,0-10.7s-7.7-2.9-10.6,0L125,65.8
		c-2.9,3-2.9,7.8,0,10.7C126.4,78,128.4,78.7,130.3,78.7z"/>
	<path class="st0" d="M141.3,115.7c0,4.1,3.3,7.5,7.5,7.5h15.1c4.1,0,7.5-3.4,7.5-7.5s-3.3-7.5-7.5-7.5h-15.1
		C144.7,108.2,141.3,111.6,141.3,115.7z"/>
	<path class="st0" d="M125,155c-2.9,2.9-2.9,7.7,0,10.6l10.7,10.7c1.4,1.5,3.4,2.2,5.3,2.2c1.9,0,3.8-0.8,5.3-2.2
		c2.9-2.9,2.9-7.7,0-10.6L135.6,155C132.7,152.1,127.9,152.1,125,155z"/>
	<path class="st0" d="M78.2,178.8v15.1c0,4.1,3.3,7.5,7.5,7.5s7.5-3.4,7.5-7.5v-15.1c0-4.1-3.4-7.5-7.5-7.5S78.2,174.6,78.2,178.8z"
		/>
	<path class="st0" d="M35.8,155l-10.7,10.7c-2.9,2.9-2.9,7.7,0,10.6c1.4,1.5,3.4,2.2,5.3,2.2c2,0,3.9-0.8,5.3-2.2l10.7-10.7
		c2.9-2.9,2.9-7.7,0-10.6C43.5,152.1,38.7,152.1,35.8,155z"/>
	<path class="st0" d="M7.5,123.2h15.2c4.1,0,7.4-3.4,7.4-7.5s-3.3-7.5-7.5-7.5H7.5c-4.1,0-7.5,3.4-7.5,7.5
		C0,119.8,3.3,123.2,7.5,123.2z"/>
	<path class="st0" d="M35.8,76.5c1.4,1.5,3.4,2.2,5.3,2.2c2,0,3.9-0.8,5.3-2.3c2.9-3,2.9-7.8,0-10.7L35.7,55c-2.9-2.9-7.7-3-10.6,0
		s-2.9,7.8,0,10.7L35.8,76.5z"/>
</g>
</svg>
