<?xml version="1.0" encoding="utf-8"?>
<!-- Generator: Adobe Illustrator 22.1.0, SVG Export Plug-In . SVG Version: 6.00 Build 0)  -->
<svg version="1.1" id="Слой_1" xmlns="http://www.w3.org/2000/svg" xmlns:xlink="http://www.w3.org/1999/xlink" x="0px" y="0px"
	 viewBox="0 0 511 511" style="enable-background:new 0 0 511 511;" xml:space="preserve">
<style type="text/css">
	.st0{fill:#339900;}
</style>
<path class="st0" d="M482.8,360.5c-0.6-19.1-3.8-67.5-9.3-85c1.9-0.7,3.7-1.9,5.3-3.4c38-38,38-99.9,0-138
	c-18.4-18.4-42.9-28.6-69-28.6c-26.1,0-50.6,10.1-69,28.6c-1.6,1.6-2.8,3.5-3.5,5.5c-14.8-4.6-30.3-7.6-46.3-8.7v-17.1
	c0-8.3-6.7-15-15-15c-8.3,0-15,6.7-15,15v17.1c-44.1,3.2-84.4,20.2-116.6,46.8l-93.8-61.5c-6.2-4.1-14.5-3-19.4,2.7L3.7,150.5
	c-5,5.7-4.9,14.1,0.1,19.8L84,260.9c-8.6,21.7-13.7,75.1-14.4,99.6H482.8z M366.5,151.1c12.1-10.2,27.3-15.7,43.4-15.7
	c18.1,0,35.1,7,47.9,19.8c24.9,24.9,26.3,64.5,4.2,91.1C441.6,204.9,407.9,171.3,366.5,151.1z"/>
<path class="st0" d="M496,360.5H56.3c-8.2,0-15,6.7-15,15v22.3c0,8.2,6.7,15,15,15H496c8.2,0,15-6.7,15-15v-22.3
	C511,367.2,504.3,360.5,496,360.5z"/>
</svg>
