<svg xmlns="http://www.w3.org/2000/svg" viewBox="0 0 500.96 354.07"><defs><style>.cls-1,.cls-2{fill:#fff;}.cls-2{stroke:#fff;stroke-miterlimit:10;}</style></defs><title>Ресурс 1</title><g id="Слой_2" data-name="Слой 2"><g id="Слой_1-2" data-name="Слой 1"><path class="cls-1" d="M151.61,165.9a2.5,2.5,0,1,1-.08-5h0c3.87-.14,7.76-.22,11.58-.24h0a2.5,2.5,0,0,1,0,5c-3.77,0-7.61.1-11.44.23Zm39.46.64h-.18c-3.72-.27-7.56-.48-11.41-.63a2.5,2.5,0,0,1,.19-5c3.9.15,7.8.36,11.57.63a2.5,2.5,0,1,1-.17,5Zm-67.33,1.29a2.5,2.5,0,1,1-.26-5h0c3.82-.39,7.7-.74,11.53-1a2.47,2.47,0,0,1,2.66,2.26v0a2.51,2.51,0,0,1-2.29,2.68h0q-5.7.42-11.39,1Zm95.08,2h-.43q-5.61-1-11.27-1.69a2.49,2.49,0,0,1,.62-4.95c3.91.5,7.78,1.08,11.5,1.73a2.49,2.49,0,0,1-.42,5ZM96.07,171.67a2.5,2.5,0,0,1-.44-4.95h0q5.7-1,11.43-1.86a2.5,2.5,0,0,1,.72,4.94c-3.82.56-7.62,1.17-11.28,1.83h-.44ZM246,176.48a2.53,2.53,0,0,1-.77-.12q-5.4-1.77-10.89-3.16a2.5,2.5,0,0,1,1.22-4.84c3.88,1,7.65,2.09,11.21,3.26a2.49,2.49,0,0,1,1.61,3.13A2.51,2.51,0,0,1,246,176.48Zm-177.23,1a2.5,2.5,0,0,1-.57-4.93q5.63-1.32,11.28-2.52a2.48,2.48,0,0,1,3,1.9h0a2.48,2.48,0,0,1-1.86,3l0,0c-4.37.94-7.93,1.73-11.18,2.5a3.7,3.7,0,0,1-.57.07Zm-26.77,8a2.5,2.5,0,0,1-.93-4.81c3.4-1.37,7-2.64,11-3.89a2.48,2.48,0,0,1,3.11,1.62v0h0a2.49,2.49,0,0,1-1.64,3.11c-3.91,1.21-7.4,2.44-10.66,3.76a2.48,2.48,0,0,1-.93.18Zm229.33,2.57a2.64,2.64,0,0,1-1.33-.42,91.65,91.65,0,0,0-9.81-5.4A2.5,2.5,0,0,1,259,179a2.47,2.47,0,0,1,3.29-1.19h0a95.39,95.39,0,0,1,10.34,5.7,2.47,2.47,0,0,1,.78,3.41v0a2.54,2.54,0,0,1-2.1,1.16Zm-253,12.06a2.49,2.49,0,0,1-1.74-4.28A60.66,60.66,0,0,1,26,188.41a2.47,2.47,0,0,1,3.42.7v0h0a2.51,2.51,0,0,1-.73,3.45,55.78,55.78,0,0,0-8.62,6.85,2.48,2.48,0,0,1-1.73.71Zm272.7,7.38a2.53,2.53,0,0,1-2.13-1.21,48.52,48.52,0,0,0-6.66-8.69,2.49,2.49,0,0,1,3.58-3.46h0a53.74,53.74,0,0,1,7.33,9.57,2.48,2.48,0,0,1-.85,3.41h0A2.47,2.47,0,0,1,291.07,207.53ZM4.49,224.07A2.49,2.49,0,0,1,2,221.58H2a2.18,2.18,0,0,1,.09-.63,55.92,55.92,0,0,1,4.32-11.27,2.5,2.5,0,0,1,3.35-1.08h0A2.5,2.5,0,0,1,10.83,212a50.64,50.64,0,0,0-3.94,10.24A2.51,2.51,0,0,1,4.49,224Zm292.94,10.31h-.14a2.49,2.49,0,0,1-2.34-2.63c.05-1,.08-1.94.08-2.92a47.55,47.55,0,0,0-.67-8,2.48,2.48,0,1,1,4.89-.86h0a50.66,50.66,0,0,1,.75,8.87c0,1,0,2.1-.09,3.2a2.5,2.5,0,0,1-2.48,2.36Zm-294,17.51A2.5,2.5,0,0,1,1,249.78a80.11,80.11,0,0,1-1-11.87,2.48,2.48,0,0,1,2.47-2.5h0A2.48,2.48,0,0,1,5,237.84v0A75.36,75.36,0,0,0,5.92,249a2.48,2.48,0,0,1-2,2.84h0Zm8.1,26.78a2.51,2.51,0,0,1-2.27-1.49q-2.38-5.39-4.25-11a2.49,2.49,0,0,1,4.72-1.58h0q1.79,5.37,4.07,10.54a2.5,2.5,0,0,1-1.26,3.29,2.6,2.6,0,0,1-1,.22ZM25.32,303a2.49,2.49,0,0,1-2-1.06c-2.25-3.2-4.38-6.49-6.36-9.86a2.49,2.49,0,1,1,4.14-2.77,1.59,1.59,0,0,1,.13.22h0q2.88,4.88,6.14,9.52a2.49,2.49,0,0,1-2,3.93Zm18.56,20.86a2.58,2.58,0,0,1-1.64-.62,114.72,114.72,0,0,1-8.44-8.21,2.51,2.51,0,0,1,.14-3.53,2.46,2.46,0,0,1,3.49.12h0a110.59,110.59,0,0,0,8.06,7.85,2.5,2.5,0,0,1-1.63,4.38Zm175.5,15.26a2.5,2.5,0,0,1-.95-4.8,55.28,55.28,0,0,0,9.78-5.07,2.47,2.47,0,0,1,3.44.68h0a2.5,2.5,0,0,1-.68,3.46A60.91,60.91,0,0,1,220.31,339a2.54,2.54,0,0,1-.94.19ZM67,339.43a2.63,2.63,0,0,1-1.11-.27q-5.25-2.66-10.22-5.81a2.52,2.52,0,0,1-.77-3.45,2.48,2.48,0,0,1,3.42-.77h0q4.77,3,9.83,5.54A2.5,2.5,0,0,1,67,339.43Zm26.17,9.66a3.09,3.09,0,0,1-.61-.08c-3.78-.95-7.53-2.07-11.22-3.34a2.51,2.51,0,0,1-1.54-3.18,2.48,2.48,0,0,1,3.14-1.56l.06,0h0q5.34,1.85,10.82,3.23a2.49,2.49,0,0,1-.61,4.91Zm71.86,3a2.51,2.51,0,1,1-.32-5q5.65-.75,11.28-1.71a2.49,2.49,0,0,1,2.87,2h0a2.5,2.5,0,0,1-2,2.89q-5.72,1-11.48,1.74h-.32Zm-44.3,1.43h-.18c-3.94-.3-7.85-.72-11.61-1.26a2.49,2.49,0,1,1,.7-4.94c3.65.52,7.45.93,11.28,1.22a2.5,2.5,0,1,1-.18,5Zm16.43.53a2.5,2.5,0,0,1,0-5c3.72,0,7.55-.16,11.37-.39a2.5,2.5,0,0,1,.3,5h0c-3.91.24-7.82.38-11.63.41Zm154.39-97.38a3.25,3.25,0,0,1-.88-.15,2.32,2.32,0,0,1-1.54-2.9l0-.1c.67-1.7,1.29-3.42,1.84-5.12a2.59,2.59,0,0,1,3.18-1.59,2.35,2.35,0,0,1,1.76,2.82,1.21,1.21,0,0,1-.05.18c-.59,1.81-1.23,3.61-1.94,5.39a2.57,2.57,0,0,1-2.4,1.55M304,25.32h-.21q-6-.5-11.44-.7A2.5,2.5,0,0,1,290,22.06h0a2.52,2.52,0,0,1,2.55-2.39c3.7.14,7.63.39,11.67.72a2.47,2.47,0,0,1,2.26,2.66h0A2.48,2.48,0,0,1,304,25.32Zm-39.6.57A2.47,2.47,0,0,1,264,21h0a113.19,113.19,0,0,1,11.76-1.22,2.47,2.47,0,0,1,.72,4.88,2.69,2.69,0,0,1-.49,0h0a106.16,106.16,0,0,0-11.25,1.17,2.67,2.67,0,0,1-.4,0Zm67.5,2.92h-.4q-5.69-.91-11.39-1.68a2.48,2.48,0,0,1-2.11-2.8h0a2.47,2.47,0,0,1,2.77-2.13h0c3.72.49,7.6,1.06,11.52,1.69a2.47,2.47,0,0,1-.39,4.91ZM359.54,34A2.24,2.24,0,0,1,359,34q-5.64-1.2-11.31-2.3a2.46,2.46,0,0,1-2-2.84v0h0a2.47,2.47,0,0,1,2.91-2c3.73.72,7.57,1.5,11.4,2.31a2.47,2.47,0,0,1,1.9,2.93h0a2.49,2.49,0,0,1-2.42,2ZM238.77,36.57a2.45,2.45,0,0,1-2.49-2.43,2.42,2.42,0,0,1,.93-2h0a62.24,62.24,0,0,1,6.43-4.38,35.43,35.43,0,0,1,3.84-2.06,2.48,2.48,0,0,1,3.3,1.18h0a2.46,2.46,0,0,1-1.18,3.27h0A29,29,0,0,0,246.26,32,55.66,55.66,0,0,0,240.31,36,2.52,2.52,0,0,1,238.77,36.57Zm148.12,3.85a3.18,3.18,0,0,1-.62-.07q-5.58-1.43-11.2-2.77a2.48,2.48,0,0,1-1.85-3v0h0a2.48,2.48,0,0,1,3-1.84h0q5.65,1.35,11.29,2.78a2.47,2.47,0,0,1,1.78,3h0a2.47,2.47,0,0,1-2.4,1.85ZM232,60.91a2.51,2.51,0,0,1-2.15-1.24,20.17,20.17,0,0,1-2.85-10,16.21,16.21,0,0,1,.22-2.7A2.45,2.45,0,0,1,230,45h0a2.46,2.46,0,0,1,2.05,2.82h0a11.66,11.66,0,0,0-.09,1.87,15.31,15.31,0,0,0,2.21,7.53,2.46,2.46,0,0,1-.92,3.35h0a2.47,2.47,0,0,1-1.22.32ZM253,79a2.47,2.47,0,0,1-1.1-.26c-1.14-.56-2.26-1.17-3.36-1.81a71.3,71.3,0,0,1-6.84-4.56,2.47,2.47,0,0,1-.48-3.45h0a2.47,2.47,0,0,1,3.47-.48,64.72,64.72,0,0,0,6.39,4.22q1.5.87,3.06,1.65a2.46,2.46,0,0,1,1.12,3.3h0A2.53,2.53,0,0,1,253,79Zm27.26,5.88h-.21c-4.46-.39-8.15-.72-11.65-1.23a2.46,2.46,0,0,1-2.09-2.78v0h0a2.46,2.46,0,0,1,2.77-2.09h0c3.37.49,7,.81,11.35,1.18a2.48,2.48,0,0,1,2.34,2.61s0,.07,0,.11h0a2.48,2.48,0,0,1-2.47,2.25Zm27.92,3.33a2.81,2.81,0,0,1-.41,0q-5.67-.93-11.38-1.66a2.48,2.48,0,0,1-2.14-2.76h0A2.47,2.47,0,0,1,297,81.66h.05c2.52.33,6.57.89,11.54,1.69a2.46,2.46,0,0,1,2,2.83h0a2.5,2.5,0,0,1-2.44,2.08Zm27.55,5.59a3.09,3.09,0,0,1-.61-.08q-5.58-1.41-11.19-2.56A2.47,2.47,0,0,1,322,88.26h0a2.47,2.47,0,0,1,2.92-1.94l.08,0q6,1.24,11.38,2.62a2.46,2.46,0,0,1,1.8,3h0a2.48,2.48,0,0,1-2.4,1.86Zm25.71,10.91a2.45,2.45,0,0,1-1.34-.4,80.09,80.09,0,0,0-9.8-5.44,2.47,2.47,0,0,1-1.21-3.27h0a2.47,2.47,0,0,1,3.3-1.19h0a87.76,87.76,0,0,1,10.39,5.77,2.46,2.46,0,0,1,.75,3.39v0h0a2.55,2.55,0,0,1-2.06,1.13ZM382.67,123a2.49,2.49,0,0,1-1.84-.82q-3.79-4.18-8-8a2.47,2.47,0,0,1-.18-3.48h0a2.47,2.47,0,0,1,3.5-.16q4.38,4,8.34,8.33a2.48,2.48,0,0,1-.17,3.49h0a2.55,2.55,0,0,1-1.62.64Zm16.4,22.66a2.5,2.5,0,0,1-2.16-1.24q-2.81-4.92-6-9.58a2.47,2.47,0,0,1,.63-3.43h0A2.48,2.48,0,0,1,395,132q3.35,4.83,6.26,9.93a2.45,2.45,0,0,1-.91,3.35h0a2.45,2.45,0,0,1-1.24.33Zm11.21,25.62a2.47,2.47,0,0,1-2.36-1.73q-1.69-5.4-3.88-10.63a2.47,2.47,0,0,1,1.36-3.2h0a2.47,2.47,0,0,1,3.24,1.34q2.26,5.43,4,11a2.45,2.45,0,0,1-1.61,3.08h0a3.42,3.42,0,0,1-.71.13Zm5.24,27.44a2.49,2.49,0,0,1-2.47-2.33c-.17-2.67-.45-5.36-.82-8.07-.15-1-.31-2.07-.49-3.1a2.48,2.48,0,0,1,2-2.85h0a2.46,2.46,0,0,1,2.86,2c.19,1.08.36,2.15.51,3.23.4,2.79.69,5.65.86,8.48a2.49,2.49,0,0,1-2.33,2.61Zm-2,27.83A2.48,2.48,0,0,1,411,224a2.73,2.73,0,0,1,.05-.5q1.11-5.53,1.67-11.14a2.48,2.48,0,1,1,4.94.47h0A114.84,114.84,0,0,1,416,224.52a2.5,2.5,0,0,1-2.43,2Zm-8.65,26.55a2.48,2.48,0,0,1-2.48-2.48,2.42,2.42,0,0,1,.21-1h0c1.56-3.47,3-7,4.2-10.5a2.48,2.48,0,0,1,3.14-1.53h0a2.47,2.47,0,0,1,1.53,3.14h0q-1.94,5.55-4.36,10.9a2.5,2.5,0,0,1-2.26,1.46ZM390.8,277.24a2.58,2.58,0,0,1-1.45-.47,2.48,2.48,0,0,1-.58-3.44h0q3.32-4.59,6.26-9.45a2.48,2.48,0,0,1,3.4-.84,2.45,2.45,0,0,1,.85,3.37h0c-2,3.35-4.19,6.62-6.48,9.79a2.55,2.55,0,0,1-2,1Zm-18.64,20.89a2.47,2.47,0,0,1-1.68-4.29h0q4.2-3.81,8-8a2.47,2.47,0,1,1,3.66,3.33h0c-2.66,2.89-5.46,5.65-8.37,8.29a2.48,2.48,0,0,1-1.66.64ZM349,313.79a2.47,2.47,0,0,1-1-4.72h0a73.2,73.2,0,0,0,9.78-5.38,2.48,2.48,0,0,1,2.73,4.13h0A77.62,77.62,0,0,1,350,313.58,2.46,2.46,0,0,1,349,313.79Zm-42.26,1.46a2.48,2.48,0,0,1-1.66-.64,23.63,23.63,0,0,1-6.87-10.87,2.47,2.47,0,0,1,1.8-3h0a2.47,2.47,0,0,1,3,1.81,18.93,18.93,0,0,0,5.37,8.38,2.47,2.47,0,0,1,.19,3.48h0a2.51,2.51,0,0,1-1.84.81Zm15.67,5.42h-.49a2.47,2.47,0,0,1,0-4.94h.47a45,45,0,0,0,10.4-1.38,2.47,2.47,0,1,1,1.17,4.8h0A49.46,49.46,0,0,1,322.41,320.67Z"/><path class="cls-2" d="M499.93,58.5A1.11,1.11,0,0,0,500.3,57a1.63,1.63,0,0,0-.17-.2l-58-56a1.1,1.1,0,0,0-1.56,0,1.15,1.15,0,0,0-.31.75L440,27.39,427.39,50.06a1.11,1.11,0,0,0,.46,1.51.85.85,0,0,0,.22.09l11.66,3.07-.23,22.49a1.09,1.09,0,0,0,1.45,1l58.77-19.66a1.06,1.06,0,0,0,.21-.11ZM441.1,45.15a1.15,1.15,0,0,0-.55.05l-9.82,3.4,10.82-19.45L492,55l-50.82-9.84Zm52.12,8L442.21,27l.24-22.82Zm-61.08-2.71.72-.25,6.93-2.4,0,4.65Zm9.58,25.24.22-21.79.07-6.32,53,10.26Z"/><path class="cls-1" d="M290.85,288.33a2.48,2.48,0,0,1-1.57-1.63q-1.69-5.62-2.95-11.36a2.49,2.49,0,0,1,4.8-1.33l.06.25h0q1.2,5.53,2.84,11a2.5,2.5,0,0,1-1.66,3.12,2.48,2.48,0,0,1-1.5,0Z"/><path class="cls-1" d="M194.27,346.71a2.5,2.5,0,0,1-.82-4.94q5.55-1.31,11.06-2.82a2.49,2.49,0,0,1,3.05,1.71h0a2.49,2.49,0,0,1-1.7,3.07q-5.6,1.56-11.25,2.87l-.32,0Z"/><path class="cls-1" d="M414.65,47.86a2.16,2.16,0,0,1-.62-.09q-5.53-1.58-11.11-3.1a2.47,2.47,0,0,1-1.76-3v0h0a2.49,2.49,0,0,1,3-1.75h0q5.61,1.51,11.2,3.11a2.46,2.46,0,0,1,1.69,3h0a2.45,2.45,0,0,1-2.45,1.78Z"/></g></g></svg>